<svg width="2255" viewBox="0 0 2255 2391" xmlns="http://www.w3.org/2000/svg" xmlns:xlink="http://www.w3.org/1999/xlink" xmlns:ev="http://www.w3.org/2001/xml-events" height="2391"><defs><linearGradient x2="0%" id="lg1" y2="100%" x1="0%" y1="0%"><stop stop-color="#000000" offset="0.00" stop-opacity="0.08"/><stop stop-color="#000000" offset="1.00" stop-opacity="0.08"/></linearGradient><linearGradient x2="0%" id="lg2" y2="100%" x1="0%" y1="0%"><stop stop-color="#fbfbfb" offset="0.00"/><stop stop-color="#efefef" offset="1.00"/></linearGradient></defs><g id="page1" transform="translate(5.5,5.5)"><rect width="2245" x="0" fill="#ffffff" y="0" height="2381"/><g id="group1" transform="translate(349.291500,617.837500)"><path stroke="#000000" stroke-width="4" d="M689.7,389.5L689.7,.0L.0,.0L.0,389.5L689.7,389.5z" fill="#5fbcb0" fill-rule="nonzero" id="shape2"/></g><g id="group3" transform="translate(510.000500,764.338000)"><g id="shape4"><path stroke="#000000" stroke-opacity="0.08" fill-opacity="0.08" d="M338.7,86.0L338.7,9.0C338.7,5.1,335.5,2.0,331.7,2.0L9.0,2.0C5.1,2.0,2.0,5.1,2.0,9.0L2.0,86.0C2.0,89.8,5.1,93.0,9.0,93.0L331.7,93.0C335.5,93.0,338.7,89.8,338.7,86.0z" fill="#000000"/><path stroke="#000000" stroke-width="4" d="M336.7,84.0L336.7,7.0C336.7,3.1,333.5,.0,329.7,.0L7.0,.0C3.1,.0,.0,3.1,.0,7.0L.0,84.0C.0,87.8,3.1,91.0,7.0,91.0L329.7,91.0C333.5,91.0,336.7,87.8,336.7,84.0z" fill="#ffffff" fill-rule="nonzero"/></g><text xml:space="preserve" style="fill:#303030;font-family:Arial,PingFang SC,Mircrosoft YaHei,Arial;font-size:18.00pt"><tspan x="77.3" style="font-family:Arial,PingFang SC,Mircrosoft YaHei,Arial;font-weight:bold" y="38.0">Read assembly </tspan><tspan x="34.1" style="font-family:Arial,PingFang SC,Mircrosoft YaHei,Arial" y="67.0">(metaSPAdes,MEGAHIT)</tspan></text></g><g id="shape5" transform="translate(879.950500,577.609000)"><path stroke="#000000" stroke-width="4" d="M.0,.0L-177.2,38.4" fill="none"/><path stroke-width="1" stroke="#000000" stroke-linecap="round" d="M-185.8,40.2L-174.4,43.9C-175.8,42.4,-176.8,40.5,-177.2,38.4C-177.7,36.2,-177.5,34.1,-176.9,32.2L-185.8,40.2" fill="#000000"/></g><g id="shape6" transform="translate(439.503800,577.609000)"><path stroke="#000000" stroke-width="4" d="M.0,.0L246.0,38.9" fill="none"/><path stroke-width="1" stroke="#000000" stroke-linecap="round" d="M254.6,40.2L245.3,32.7C246.0,34.6,246.3,36.7,246.0,38.9C245.6,41.0,244.7,43.0,243.4,44.5L254.6,40.2" fill="#000000"/></g><g id="shape7" transform="translate(678.341000,855.288000)"><path stroke="#000000" stroke-width="4" d="M.0,.0L.0,21.6" fill="none"/><path stroke-width="1" stroke="#000000" stroke-linecap="round" d="M.0,30.3L6.0,19.9C4.2,21.0,2.2,21.6,.0,21.6C-2.2,21.6,-4.2,21.0,-6.0,19.9L.0,30.3" fill="#000000"/></g><g id="shape8" transform="translate(678.341000,982.485600)"><path stroke="#000000" stroke-width="4" d="M.0,.0L.0,100.9L-251.0,100.9" fill="none"/><path stroke-width="1" stroke="#000000" stroke-linecap="round" d="M-259.8,100.9L-249.4,106.9C-250.4,105.1,-251.0,103.1,-251.0,100.9C-251.0,98.7,-250.4,96.6,-249.4,94.9L-259.8,100.9" fill="#000000"/></g><g id="group9" transform="translate(510.000500,886.338400)"><g id="shape10"><path stroke="#000000" stroke-opacity="0.08" fill-opacity="0.08" d="M338.7,91.1L338.7,9.0C338.7,5.1,335.5,2.0,331.7,2.0L9.0,2.0C5.1,2.0,2.0,5.1,2.0,9.0L2.0,91.1C2.0,95.0,5.1,98.1,9.0,98.1L331.7,98.1C335.5,98.1,338.7,95.0,338.7,91.1z" fill="#000000"/><path stroke="#000000" stroke-width="4" d="M336.7,89.1L336.7,7.0C336.7,3.1,333.5,.0,329.7,.0L7.0,.0C3.1,.0,.0,3.1,.0,7.0L.0,89.1C.0,93.0,3.1,96.1,7.0,96.1L329.7,96.1C333.5,96.1,336.7,93.0,336.7,89.1z" fill="#ffffff" fill-rule="nonzero"/></g><text xml:space="preserve" style="fill:#303030;font-family:Arial,PingFang SC,Mircrosoft YaHei,Arial;font-size:18.00pt;font-weight:bold"><tspan x="58.8" style="font-family:Arial,PingFang SC,Mircrosoft YaHei,Arial" y="54.6">Assembled contigs</tspan></text></g><g id="group11" transform="translate(510.000500,642.338000)"><g id="shape12"><path stroke="#000000" stroke-opacity="0.08" fill-opacity="0.08" d="M338.7,86.0L338.7,9.0C338.7,5.1,335.5,2.0,331.7,2.0L9.0,2.0C5.1,2.0,2.0,5.1,2.0,9.0L2.0,86.0C2.0,89.8,5.1,93.0,9.0,93.0L331.7,93.0C335.5,93.0,338.7,89.8,338.7,86.0z" fill="#000000"/><path stroke="#000000" stroke-width="4" d="M336.7,84.0L336.7,7.0C336.7,3.1,333.5,.0,329.7,.0L7.0,.0C3.1,.0,.0,3.1,.0,7.0L.0,84.0C.0,87.8,3.1,91.0,7.0,91.0L329.7,91.0C333.5,91.0,336.7,87.8,336.7,84.0z" fill="#ffffff" fill-rule="nonzero"/></g><text xml:space="preserve" style="fill:#303030;font-family:Arial,PingFang SC,Mircrosoft YaHei,Arial;font-size:18.00pt;font-weight:bold"><tspan x="38.8" style="font-family:Arial,PingFang SC,Mircrosoft YaHei,Arial" y="37.0">Quantity control(</tspan><tspan x="231.3" style="font-family:Arial,PingFang SC,Mircrosoft YaHei,Arial;font-weight:normal">fastp</tspan><tspan x="283.3" style="font-family:Arial,PingFang SC,Mircrosoft YaHei,Arial">) </tspan><tspan x="42.6" style="font-family:Arial,PingFang SC,Mircrosoft YaHei,Arial" y="66.0">Remove host(</tspan><tspan x="201.6" style="font-family:Arial,PingFang SC,Mircrosoft YaHei,Arial;font-weight:normal">Bowtie2</tspan><tspan x="286.1" style="font-family:Arial,PingFang SC,Mircrosoft YaHei,Arial">)</tspan></text></g><g id="shape13" transform="translate(678.341000,733.288000)"><path stroke="#000000" stroke-width="4" d="M.0,.0L.0,21.6" fill="none"/><path stroke-width="1" stroke="#000000" stroke-linecap="round" d="M.0,30.3L6.0,19.9C4.2,21.0,2.2,21.6,.0,21.6C-2.2,21.6,-4.2,21.0,-6.0,19.9L.0,30.3" fill="#000000"/></g><g id="group14" transform="translate(349.291500,1035.285000)"><g id="group15"><g id="shape16"><path stroke="#000000" stroke-opacity="0.08" fill-opacity="0.08" d="M691.7,706.7L691.7,2.0L2.0,2.0L2.0,706.7L691.7,706.7z" fill="#000000"/><path stroke="#000000" stroke-width="4" d="M689.7,704.7L689.7,.0L.0,.0L.0,704.7L689.7,704.7z" fill="#e3e2c3" fill-rule="nonzero"/></g></g><g id="group17" transform="translate(69.264000,0.000400)"><g id="shape18"><path stroke="#000000" stroke-opacity="0.08" d="M537.6,91.1L537.6,9.0C537.6,5.1,534.5,2.0,530.6,2.0L9.0,2.0C5.1,2.0,2.0,5.1,2.0,9.0L2.0,91.1C2.0,95.0,5.1,98.1,9.0,98.1L530.6,98.1C534.5,98.1,537.6,95.0,537.6,91.1z" fill="url(#lg1)"/><path stroke="#000000" stroke-width="4" d="M535.6,89.1L535.6,7.0C535.6,3.1,532.5,.0,528.6,.0L7.0,.0C3.1,.0,.0,3.1,.0,7.0L.0,89.1C.0,93.0,3.1,96.1,7.0,96.1L528.6,96.1C532.5,96.1,535.6,93.0,535.6,89.1z" fill="url(#lg2)" fill-rule="nonzero"/></g><text xml:space="preserve" style="fill:#303030;font-family:Arial,PingFang SC,Mircrosoft YaHei,Arial;font-size:18.00pt"><tspan x="151.6" style="font-family:Arial,PingFang SC,Mircrosoft YaHei,Arial;font-weight:bold" y="40.6">Identify viral contigs</tspan><tspan x="136.6" style="font-family:Arial,PingFang SC,Mircrosoft YaHei,Arial" y="69.6">(genomad, length>=5kb)</tspan></text></g><g id="group19" transform="translate(6.909000,228.682000)"><path stroke="#000000" stroke-width="4" d="M669.0,366.3L669.0,.0L.0,.0L.0,366.3L669.0,366.3z" fill="#b1d2df" fill-rule="nonzero" stroke-dasharray="44,20" id="shape20"/></g><g id="group21" transform="translate(69.091000,608.562400)"><g id="shape22"><path stroke="#000000" stroke-opacity="0.08" d="M537.6,91.1L537.6,9.0C537.6,5.1,534.5,2.0,530.6,2.0L9.0,2.0C5.1,2.0,2.0,5.1,2.0,9.0L2.0,91.1C2.0,95.0,5.1,98.1,9.0,98.1L530.6,98.1C534.5,98.1,537.6,95.0,537.6,91.1z" fill="url(#lg1)"/><path stroke="#000000" stroke-width="4" d="M535.6,89.1L535.6,7.0C535.6,3.1,532.5,.0,528.6,.0L7.0,.0C3.1,.0,.0,3.1,.0,7.0L.0,89.1C.0,93.0,3.1,96.1,7.0,96.1L528.6,96.1C532.5,96.1,535.6,93.0,535.6,89.1z" fill="url(#lg2)" fill-rule="nonzero"/></g><text xml:space="preserve" style="fill:#303030;font-family:Arial,PingFang SC,Mircrosoft YaHei,Arial;font-size:18.00pt"><tspan x="176.8" style="font-family:Arial,PingFang SC,Mircrosoft YaHei,Arial;font-weight:bold" y="40.6">Clustered vOTU</tspan><tspan x="134.6" style="font-family:Arial,PingFang SC,Mircrosoft YaHei,Arial" y="69.6">(blastn,95%ANI, 85%AF)</tspan></text></g><g id="group23" transform="translate(23.606000,353.710400)"><g id="shape24"><path stroke="#000000" stroke-opacity="0.08" d="M275.3,91.1L275.3,9.0C275.3,5.1,272.2,2.0,268.3,2.0L9.0,2.0C5.1,2.0,2.0,5.1,2.0,9.0L2.0,91.1C2.0,95.0,5.1,98.1,9.0,98.1L268.3,98.1C272.2,98.1,275.3,95.0,275.3,91.1z" fill="url(#lg1)"/><path stroke="#000000" stroke-width="4" d="M273.3,89.1L273.3,7.0C273.3,3.1,270.2,.0,266.3,.0L7.0,.0C3.1,.0,.0,3.1,.0,7.0L.0,89.1C.0,93.0,3.1,96.1,7.0,96.1L266.3,96.1C270.2,96.1,273.3,93.0,273.3,89.1z" fill="url(#lg2)" fill-rule="nonzero"/></g><text xml:space="preserve" style="fill:#303030;font-family:Arial,PingFang SC,Mircrosoft YaHei,Arial;font-size:18.00pt;font-weight:bold"><tspan x="81.9" style="font-family:Arial,PingFang SC,Mircrosoft YaHei,Arial" y="24.6">Complete</tspan><tspan x="67.7" style="font-family:Arial,PingFang SC,Mircrosoft YaHei,Arial" y="53.6">High-quality</tspan><tspan x="48.7" style="font-family:Arial,PingFang SC,Mircrosoft YaHei,Arial" y="82.6">Medium-quality</tspan></text></g><g id="group25" transform="translate(349.746000,480.735400)"><g id="shape26"><path stroke="#000000" stroke-opacity="0.08" d="M315.7,91.1L315.7,9.0C315.7,5.1,312.6,2.0,308.7,2.0L9.0,2.0C5.1,2.0,2.0,5.1,2.0,9.0L2.0,91.1C2.0,95.0,5.1,98.1,9.0,98.1L308.7,98.1C312.6,98.1,315.7,95.0,315.7,91.1z" fill="url(#lg1)"/><path stroke="#000000" stroke-width="4" d="M313.7,89.1L313.7,7.0C313.7,3.1,310.6,.0,306.7,.0L7.0,.0C3.1,.0,.0,3.1,.0,7.0L.0,89.1C.0,93.0,3.1,96.1,7.0,96.1L306.7,96.1C310.6,96.1,313.7,93.0,313.7,89.1z" fill="url(#lg2)" fill-rule="nonzero"/></g><text xml:space="preserve" style="fill:#303030;font-family:Arial,PingFang SC,Mircrosoft YaHei,Arial;font-size:18.00pt"><tspan x="75.1" style="font-family:Arial,PingFang SC,Mircrosoft YaHei,Arial;font-weight:bold" y="40.6">DeepVirFinder</tspan><tspan x="48.6" style="font-family:Arial,PingFang SC,Mircrosoft YaHei,Arial" y="69.6">(score>0.9, p&lt;0.01) </tspan></text></g><g id="group27" transform="translate(69.264000,240.367400)"><g id="shape28"><path stroke="#000000" stroke-opacity="0.08" d="M537.6,91.1L537.6,9.0C537.6,5.1,534.5,2.0,530.6,2.0L9.0,2.0C5.1,2.0,2.0,5.1,2.0,9.0L2.0,91.1C2.0,95.0,5.1,98.1,9.0,98.1L530.6,98.1C534.5,98.1,537.6,95.0,537.6,91.1z" fill="url(#lg1)"/><path stroke="#000000" stroke-width="4" d="M535.6,89.1L535.6,7.0C535.6,3.1,532.5,.0,528.6,.0L7.0,.0C3.1,.0,.0,3.1,.0,7.0L.0,89.1C.0,93.0,3.1,96.1,7.0,96.1L528.6,96.1C532.5,96.1,535.6,93.0,535.6,89.1z" fill="url(#lg2)" fill-rule="nonzero"/></g><text xml:space="preserve" style="fill:#303030;font-family:Arial,PingFang SC,Mircrosoft YaHei,Arial;font-size:18.00pt"><tspan x="175.6" style="font-family:Arial,PingFang SC,Mircrosoft YaHei,Arial;font-weight:bold" y="40.6">Quantity control</tspan><tspan x="217.6" style="font-family:Arial,PingFang SC,Mircrosoft YaHei,Arial" y="69.6">(CheckV)</tspan></text></g><g id="group29" transform="translate(69.264000,120.184400)"><g id="shape30"><path stroke="#000000" stroke-opacity="0.08" d="M537.6,91.1L537.6,9.0C537.6,5.1,534.5,2.0,530.6,2.0L9.0,2.0C5.1,2.0,2.0,5.1,2.0,9.0L2.0,91.1C2.0,95.0,5.1,98.1,9.0,98.1L530.6,98.1C534.5,98.1,537.6,95.0,537.6,91.1z" fill="url(#lg1)"/><path stroke="#000000" stroke-width="4" d="M535.6,89.1L535.6,7.0C535.6,3.1,532.5,.0,528.6,.0L7.0,.0C3.1,.0,.0,3.1,.0,7.0L.0,89.1C.0,93.0,3.1,96.1,7.0,96.1L528.6,96.1C532.5,96.1,535.6,93.0,535.6,89.1z" fill="url(#lg2)" fill-rule="nonzero"/></g><text xml:space="preserve" style="fill:#303030;font-family:Arial,PingFang SC,Mircrosoft YaHei,Arial;font-size:18.00pt;font-weight:bold"><tspan x="49.6" style="font-family:Arial,PingFang SC,Mircrosoft YaHei,Arial" y="39.6">Remove non-viral contigs(</tspan><tspan x="350.6" style="font-family:Arial,PingFang SC,Mircrosoft YaHei,Arial;font-weight:normal">blastn,NCBI</tspan><tspan x="478.1" style="font-family:Arial,PingFang SC,Mircrosoft YaHei,Arial">)</tspan></text></g><g id="group31" transform="translate(351.436000,353.710400)"><g id="shape32"><path stroke="#000000" stroke-opacity="0.08" d="M314.0,91.1L314.0,9.0C314.0,5.1,310.9,2.0,307.0,2.0L9.0,2.0C5.1,2.0,2.0,5.1,2.0,9.0L2.0,91.1C2.0,95.0,5.1,98.1,9.0,98.1L307.0,98.1C310.9,98.1,314.0,95.0,314.0,91.1z" fill="url(#lg1)"/><path stroke="#000000" stroke-width="4" d="M312.0,89.1L312.0,7.0C312.0,3.1,308.9,.0,305.0,.0L7.0,.0C3.1,.0,.0,3.1,.0,7.0L.0,89.1C.0,93.0,3.1,96.1,7.0,96.1L305.0,96.1C308.9,96.1,312.0,93.0,312.0,89.1z" fill="url(#lg2)" fill-rule="nonzero"/></g><text xml:space="preserve" style="fill:#303030;font-family:Arial,PingFang SC,Mircrosoft YaHei,Arial;font-size:18.00pt;font-weight:bold"><tspan x="67.3" style="font-family:Arial,PingFang SC,Mircrosoft YaHei,Arial" y="39.6">Not-determined</tspan><tspan x="13.5" style="font-family:Arial,PingFang SC,Mircrosoft YaHei,Arial" y="68.6">At least one marker gene</tspan></text></g><g id="shape33" transform="translate(337.073000,96.147600)"><path stroke="#000000" stroke-width="4" d="M.0,.0L.0,15.3" fill="none"/><path stroke-width="1" stroke="#000000" stroke-linecap="round" d="M.0,24.0L6.0,13.6C4.2,14.7,2.2,15.3,.0,15.3C-2.2,15.3,-4.2,14.7,-6.0,13.6L.0,24.0" fill="#000000"/></g><g id="shape34" transform="translate(507.442000,449.857700)"><path stroke="#000000" stroke-width="4" d="M.0,.0L-0.8,26.0" fill="none"/><path stroke-width="1" stroke="#000000" stroke-linecap="round" d="M-0.8,30.0L5.2,19.6C3.4,20.7,1.3,21.2,-0.8,21.2C-3.0,21.2,-5.1,20.7,-6.8,19.6L-0.8,30.0" fill="#000000"/></g><g id="shape35" transform="translate(506.599000,576.882700)"><path stroke="#000000" stroke-width="4" d="M.0,.0L.0,7.1L-169.7,7.1L-169.7,22.9" fill="none"/><path stroke-width="1" stroke="#000000" stroke-linecap="round" d="M-169.7,31.7L-163.7,21.3C-165.5,22.3,-167.5,22.9,-169.7,22.9C-171.9,22.9,-173.9,22.3,-175.7,21.3L-169.7,31.7" fill="#000000"/></g><g id="shape36" transform="translate(160.265000,449.857700)"><path stroke="#000000" stroke-width="4" d="M.0,.0L.0,131.9L176.6,131.9L176.6,149.9" fill="none"/><path stroke-width="1" stroke="#000000" stroke-linecap="round" d="M176.6,158.7L182.6,148.3C180.9,149.3,178.8,149.9,176.6,149.9C174.4,149.9,172.4,149.3,170.6,148.3L176.6,158.7" fill="#000000"/></g><g id="shape37" transform="translate(337.073000,216.331600)"><path stroke="#000000" stroke-width="4" d="M.0,.0L.0,15.3" fill="none"/><path stroke-width="1" stroke="#000000" stroke-linecap="round" d="M.0,24.0L6.0,13.6C4.2,14.7,2.2,15.3,.0,15.3C-2.2,15.3,-4.2,14.7,-6.0,13.6L.0,24.0" fill="#000000"/></g></g><g id="shape38" transform="translate(686.364500,1371.799600)"><path stroke="#000000" stroke-width="4" d="M.0,.0L-168.1,16.3" fill="none"/><path stroke-width="1" stroke="#000000" stroke-linecap="round" d="M-176.8,17.2L-165.9,22.2C-167.1,20.5,-167.9,18.5,-168.1,16.3C-168.3,14.2,-167.9,12.1,-167.0,10.2L-176.8,17.2" fill="#000000"/></g><g id="shape39" transform="translate(686.364500,1371.799600)"><path stroke="#000000" stroke-width="4" d="M.0,.0L161.6,16.3" fill="none"/><path stroke-width="1" stroke="#000000" stroke-linecap="round" d="M170.4,17.2L160.6,10.2C161.5,12.0,161.8,14.1,161.6,16.3C161.4,18.5,160.6,20.5,159.4,22.1L170.4,17.2" fill="#000000"/></g><g id="group40" transform="translate(349.291500,170.000000)"><g id="group41"><g id="shape42"><path stroke="#000000" stroke-opacity="0.08" fill-opacity="0.08" d="M691.7,432.3L691.7,2.0L2.0,2.0L2.0,432.3L691.7,432.3z" fill="#000000"/><path stroke="#000000" stroke-width="4" d="M689.7,430.3L689.7,.0L.0,.0L.0,430.3L689.7,430.3z" fill="#3c9099" fill-rule="nonzero"/></g></g><g id="shape43" transform="translate(-0.000200,298.469000)"><path d="M.0,18.0L.0,91.1C.0,101.1,40.4,109.1,90.2,109.1C140.0,109.1,180.4,101.1,180.4,91.1L180.4,18.0C180.4,8.1,140.0,-0.0,90.2,-0.0C40.4,-0.0,.0,8.1,.0,18.0z" fill="#4197ae" fill-rule="nonzero"/><path stroke="#000000" stroke-width="4" d="M.0,18.0L.0,91.1C.0,101.1,40.4,109.1,90.2,109.1C140.0,109.1,180.4,101.1,180.4,91.1L180.4,18.0C180.4,8.1,140.0,-0.0,90.2,-0.0C40.4,-0.0,.0,8.1,.0,18.0zM.0,18.0C.0,28.0,40.4,36.1,90.2,36.1C140.0,36.1,180.4,28.0,180.4,18.0" fill="none"/><text xml:space="preserve" style="fill:#ffffff;font-family:Arial,PingFang SC,Mircrosoft YaHei,Arial;font-size:18.00pt;font-weight:bold"><tspan x="43.5" style="font-family:Arial,PingFang SC,Mircrosoft YaHei,Arial" y="60.1">PubMed</tspan><tspan x="5.2" style="font-family:Arial,PingFang SC,Mircrosoft YaHei,Arial" y="89.1">google scholar</tspan></text></g><g id="shape44" transform="translate(206.956000,298.469000)"><path d="M.0,17.2L.0,92.0C-0.0,101.5,38.4,109.1,85.8,109.1C133.1,109.1,171.5,101.5,171.5,92.0L171.5,17.2C171.5,7.7,133.1,-0.0,85.8,-0.0C38.4,-0.0,-0.0,7.7,.0,17.2z" fill="#4197ae" fill-rule="nonzero"/><path stroke="#000000" stroke-width="4" d="M.0,17.2L.0,92.0C-0.0,101.5,38.4,109.1,85.8,109.1C133.1,109.1,171.5,101.5,171.5,92.0L171.5,17.2C171.5,7.7,133.1,-0.0,85.8,-0.0C38.4,-0.0,-0.0,7.7,.0,17.2zM.0,17.2C-0.0,26.6,38.4,34.3,85.8,34.3C133.1,34.3,171.5,26.6,171.5,17.2" fill="none"/><text xml:space="preserve" style="fill:#ffffff;font-family:Arial,PingFang SC,Mircrosoft YaHei,Arial;font-size:18.00pt;font-weight:bold"><tspan x="5.8" style="font-family:Arial,PingFang SC,Mircrosoft YaHei,Arial" y="60.1">SRA database</tspan></text></g><g id="shape45" transform="translate(188.709000,254.779000)"><path stroke="#000000" stroke-width="4" d="M.0,.0L-90.5,40.1" fill="none"/><path stroke-width="1" stroke="#000000" stroke-linecap="round" d="M-98.5,43.7L-86.6,45.0C-88.2,43.8,-89.6,42.1,-90.5,40.1C-91.4,38.1,-91.7,36.0,-91.4,34.0L-98.5,43.7" fill="#000000"/></g><g id="shape46" transform="translate(188.709000,254.779000)"><path stroke="#000000" stroke-width="4" d="M.0,.0L95.9,40.3" fill="none"/><path stroke-width="1" stroke="#000000" stroke-linecap="round" d="M104.0,43.7L96.7,34.1C97.0,36.2,96.7,38.3,95.9,40.3C95.1,42.3,93.7,44.0,92.1,45.2L104.0,43.7" fill="#000000"/></g><g id="shape47" transform="translate(180.424800,353.039000)"><path stroke="#000000" stroke-width="4" d="M.0,.0L17.7,.0" fill="none"/><path stroke-width="1" stroke="#000000" stroke-linecap="round" d="M26.5,.0L16.1,-6.0C17.2,-4.2,17.7,-2.2,17.7,.0C17.7,2.2,17.2,4.2,16.1,6.0L26.5,.0" fill="#000000"/></g><g id="group48" transform="translate(42.355000,0.000000)"><g id="shape49"><path stroke="#000000" stroke-opacity="0.08" d="M294.7,249.8L294.7,9.0C294.7,5.1,291.6,2.0,287.7,2.0L9.0,2.0C5.1,2.0,2.0,5.1,2.0,9.0L2.0,249.8C2.0,253.6,5.1,256.8,9.0,256.8L287.7,256.8C291.6,256.8,294.7,253.6,294.7,249.8z" fill="url(#lg1)"/><path stroke="#000000" stroke-width="4" d="M292.7,247.8L292.7,7.0C292.7,3.1,289.6,.0,285.7,.0L7.0,.0C3.1,.0,.0,3.1,.0,7.0L.0,247.8C.0,251.6,3.1,254.8,7.0,254.8L285.7,254.8C289.6,254.8,292.7,251.6,292.7,247.8z" fill="url(#lg2)" fill-rule="nonzero"/></g><text xml:space="preserve" style="fill:#303030;font-family:Arial,PingFang SC,Mircrosoft YaHei,Arial;font-size:18.00pt"><tspan x="88.4" style="font-family:Arial,PingFang SC,Mircrosoft YaHei,Arial;font-weight:bold" y="28.9">Keywords</tspan><tspan x="25.9" style="font-family:Arial,PingFang SC,Mircrosoft YaHei,Arial" y="60.4">metagenomic Urban，</tspan><tspan x="15.6" style="font-family:Arial,PingFang SC,Mircrosoft YaHei,Arial" y="91.4">metagenomic Hospital，</tspan><tspan x="19.9" style="font-family:Arial,PingFang SC,Mircrosoft YaHei,Arial" y="122.4">metagenomic WWTP，</tspan><tspan x="45.1" style="font-family:Arial,PingFang SC,Mircrosoft YaHei,Arial" y="153.4">metagenomic Air，</tspan><tspan x="39.1" style="font-family:Arial,PingFang SC,Mircrosoft YaHei,Arial" y="184.4">metagenomic Soil，</tspan><tspan x="11.4" style="font-family:Arial,PingFang SC,Mircrosoft YaHei,Arial" y="215.4">metagenomic Greenland, </tspan><tspan x="38.1" style="font-family:Arial,PingFang SC,Mircrosoft YaHei,Arial" y="246.4">metagenomic Built...</tspan></text></g><g id="shape50" transform="translate(444.906000,298.469000)"><path d="M.0,17.2L.0,92.0C-0.0,101.5,38.4,109.1,85.8,109.1C133.1,109.1,171.5,101.5,171.5,92.0L171.5,17.2C171.5,7.7,133.1,-0.0,85.8,-0.0C38.4,-0.0,-0.0,7.7,.0,17.2z" fill="#da833d" fill-rule="nonzero"/><path stroke="#000000" stroke-width="4" d="M.0,17.2L.0,92.0C-0.0,101.5,38.4,109.1,85.8,109.1C133.1,109.1,171.5,101.5,171.5,92.0L171.5,17.2C171.5,7.7,133.1,-0.0,85.8,-0.0C38.4,-0.0,-0.0,7.7,.0,17.2zM.0,17.2C-0.0,26.6,38.4,34.3,85.8,34.3C133.1,34.3,171.5,26.6,171.5,17.2" fill="none"/><text xml:space="preserve" style="fill:#ffffff;font-family:Arial,PingFang SC,Mircrosoft YaHei,Arial;font-size:18.00pt;font-weight:bold"><tspan x="32.5" style="font-family:Arial,PingFang SC,Mircrosoft YaHei,Arial" y="60.1">MetaSUB</tspan></text></g><g id="group51" transform="translate(390.610000,0.000000)"><g id="shape52"><path stroke="#000000" stroke-opacity="0.08" d="M282.1,249.8L282.1,9.0C282.1,5.1,279.0,2.0,275.1,2.0L9.0,2.0C5.1,2.0,2.0,5.1,2.0,9.0L2.0,249.8C2.0,253.6,5.1,256.8,9.0,256.8L275.1,256.8C279.0,256.8,282.1,253.6,282.1,249.8z" fill="url(#lg1)"/><path stroke="#000000" stroke-width="4" d="M280.1,247.8L280.1,7.0C280.1,3.1,277.0,.0,273.1,.0L7.0,.0C3.1,.0,.0,3.1,.0,7.0L.0,247.8C.0,251.6,3.1,254.8,7.0,254.8L273.1,254.8C277.0,254.8,280.1,251.6,280.1,247.8z" fill="url(#lg2)" fill-rule="nonzero"/></g><text xml:space="preserve" style="fill:#303030;font-family:Arial,PingFang SC,Mircrosoft YaHei,Arial;font-size:18.00pt;font-weight:bold"><tspan x="82.0" style="font-family:Arial,PingFang SC,Mircrosoft YaHei,Arial" y="33.9">Keywords</tspan><tspan x="30.8" style="font-family:Arial,PingFang SC,Mircrosoft YaHei,Arial;font-weight:normal" y="65.4">Public transportation </tspan><tspan x="63.5" style="font-family:Arial,PingFang SC,Mircrosoft YaHei,Arial;font-weight:normal" y="96.4">facilities，pier,</tspan><tspan x="82.3" style="font-family:Arial,PingFang SC,Mircrosoft YaHei,Arial;font-weight:normal" y="124.9">residential,</tspan><tspan x="69.8" style="font-family:Arial,PingFang SC,Mircrosoft YaHei,Arial;font-weight:normal" y="153.4">supermarket,</tspan><tspan x="87.3" style="font-family:Arial,PingFang SC,Mircrosoft YaHei,Arial;font-weight:normal" y="181.9">university,</tspan><tspan x="95.5" style="font-family:Arial,PingFang SC,Mircrosoft YaHei,Arial;font-weight:normal" y="210.4">hospital,</tspan><tspan x="106.8" style="font-family:Arial,PingFang SC,Mircrosoft YaHei,Arial;font-weight:normal" y="238.9">park...</tspan></text></g><g id="shape53" transform="translate(530.659000,254.779000)"><path stroke="#000000" stroke-width="4" d="M.0,.0L.0,34.9" fill="none"/><path stroke-width="1" stroke="#000000" stroke-linecap="round" d="M.0,43.7L6.0,33.3C4.2,34.3,2.2,34.9,.0,34.9C-2.2,34.9,-4.2,34.3,-6.0,33.3L.0,43.7" fill="#000000"/></g></g><g id="group54" transform="matrix(0.000000,1.000000,-1.000000,0.000000,319.795000,170.000000)"><g id="shape55"><path stroke="#000000" stroke-opacity="0.08" fill-opacity="0.08" d="M432.3,123.7L432.3,-2.0L2.0,-2.0L2.0,123.7L432.3,123.7z" fill="#000000"/><path stroke="#3c9099" stroke-width="1" d="M430.3,125.7L430.3,.0L.0,.0L.0,125.7L430.3,125.7z" fill="#3c9099" fill-rule="nonzero"/></g><text xml:space="preserve" style="fill:#ffffff;font-family:Arial,PingFang SC,Mircrosoft YaHei,Arial;font-size:28.00pt;font-weight:bold"><tspan x="51.9" style="font-family:Arial,PingFang SC,Mircrosoft YaHei,Arial" y="74.4">Sample Collection</tspan></text></g><g id="group56" transform="matrix(0.000000,1.000000,-1.000000,0.000000,319.795000,619.288000)"><g id="shape57"><path stroke="#000000" stroke-opacity="0.08" fill-opacity="0.08" d="M390.0,123.7L390.0,-2.0L2.0,-2.0L2.0,123.7L390.0,123.7z" fill="#000000"/><path stroke="#3c9099" stroke-width="1" d="M388.0,125.7L388.0,.0L.0,.0L.0,125.7L388.0,125.7z" fill="#5fbcb0" fill-rule="nonzero"/></g><text xml:space="preserve" style="fill:#ffffff;font-family:Arial,PingFang SC,Mircrosoft YaHei,Arial;font-size:28.00pt;font-weight:bold"><tspan x="23.5" style="font-family:Arial,PingFang SC,Mircrosoft YaHei,Arial" y="51.9">Quality control and </tspan><tspan x="109.0" style="font-family:Arial,PingFang SC,Mircrosoft YaHei,Arial" y="96.9">assembly</tspan></text></g><g id="group58" transform="matrix(0.000000,1.000000,-1.000000,0.000000,319.795000,1035.290000)"><g id="shape59"><path stroke="#000000" stroke-opacity="0.08" fill-opacity="0.08" d="M711.0,123.7L711.0,-2.0L2.0,-2.0L2.0,123.7L711.0,123.7z" fill="#000000"/><path stroke="#3c9099" stroke-width="1" d="M709.0,125.7L709.0,.0L.0,.0L.0,125.7L709.0,125.7z" fill="#b1d2df" fill-rule="nonzero"/></g><text xml:space="preserve" style="fill:#ffffff;font-family:Arial,PingFang SC,Mircrosoft YaHei,Arial;font-size:28.00pt;font-weight:bold"><tspan x="187.3" style="font-family:Arial,PingFang SC,Mircrosoft YaHei,Arial" y="74.4">virus identification</tspan></text></g><g id="shape60" transform="translate(1058.498000,170.000000)"><path stroke="#000000" stroke-opacity="0.08" fill-opacity="0.08" d="M21.3,1576.3L319.8,1576.3L339.8,2.0L1.3,2.0L21.3,1576.3z" fill="#000000"/><path stroke="#6d6d6d" stroke-width="1" d="M20.0,1574.3L318.5,1574.3L338.5,.0L.0,.0L20.0,1574.3z" fill="#ebebeb" fill-rule="nonzero"/></g><g id="shape61" transform="translate(1080.000000,619.288000)"><path stroke="#000000" stroke-opacity="0.08" fill-opacity="0.08" d="M22.0,390.0L280.0,390.0L300.0,2.0L2.0,2.0L22.0,390.0z" fill="#000000"/><path stroke="#5fbcb0" stroke-width="1" d="M20.0,388.0L278.0,388.0L298.0,.0L.0,.0L20.0,388.0z" fill="#5fbcb0" fill-rule="nonzero"/></g><g id="group62" transform="translate(1103.000500,884.288350)"><g id="shape63"><path stroke="#000000" stroke-opacity="0.08" fill-opacity="0.08" d="M262.5,88.5L262.5,9.0C262.5,5.1,259.4,2.0,255.5,2.0L9.0,2.0C5.1,2.0,2.0,5.1,2.0,9.0L2.0,88.5C2.0,92.4,5.1,95.5,9.0,95.5L255.5,95.5C259.4,95.5,262.5,92.4,262.5,88.5z" fill="#000000"/><path stroke="#000000" stroke-width="4" d="M260.5,86.5L260.5,7.0C260.5,3.1,257.4,.0,253.5,.0L7.0,.0C3.1,.0,.0,3.1,.0,7.0L.0,86.5C.0,90.4,3.1,93.5,7.0,93.5L253.5,93.5C257.4,93.5,260.5,90.4,260.5,86.5z" fill="#ffffff" fill-rule="nonzero"/></g><text xml:space="preserve" style="fill:#303030;font-family:Arial,PingFang SC,Mircrosoft YaHei,Arial;font-size:18.00pt;font-weight:bold"><tspan x="32.8" style="font-family:Arial,PingFang SC,Mircrosoft YaHei,Arial" y="53.3">>8 billion contigs</tspan></text></g><g id="group64" transform="translate(1097.479500,649.876700)"><g id="shape65"><path stroke="#000000" stroke-opacity="0.08" fill-opacity="0.08" d="M262.5,83.5L262.5,9.0C262.5,5.1,259.4,2.0,255.5,2.0L9.0,2.0C5.1,2.0,2.0,5.1,2.0,9.0L2.0,83.5C2.0,87.3,5.1,90.5,9.0,90.5L255.5,90.5C259.4,90.5,262.5,87.3,262.5,83.5z" fill="#000000"/><path stroke="#000000" stroke-width="4" d="M260.5,81.5L260.5,7.0C260.5,3.1,257.4,.0,253.5,.0L7.0,.0C3.1,.0,.0,3.1,.0,7.0L.0,81.5C.0,85.3,3.1,88.5,7.0,88.5L253.5,88.5C257.4,88.5,260.5,85.3,260.5,81.5z" fill="#ffffff" fill-rule="nonzero"/></g><text xml:space="preserve" style="fill:#303030;font-family:Arial,PingFang SC,Mircrosoft YaHei,Arial;font-size:18.00pt;font-weight:bold"><tspan x="61.8" style="font-family:Arial,PingFang SC,Mircrosoft YaHei,Arial" y="35.7">>294 billion </tspan><tspan x="64.0" style="font-family:Arial,PingFang SC,Mircrosoft YaHei,Arial" y="64.7">clean reads</tspan></text></g><g id="shape66" transform="translate(1061.000000,175.288000)"><path stroke="#000000" stroke-opacity="0.08" fill-opacity="0.08" d="M22.0,423.0L317.0,423.0L337.0,2.0L2.0,2.0L22.0,423.0z" fill="#000000"/><path stroke="#3c9099" stroke-width="1" d="M20.0,421.0L315.0,421.0L335.0,.0L.0,.0L20.0,421.0z" fill="#3c9099" fill-rule="nonzero"/></g><g id="group67" transform="translate(1097.479500,208.288000)"><g id="shape68"><path stroke="#000000" stroke-opacity="0.08" fill-opacity="0.08" d="M262.5,368.0L262.5,9.0C262.5,5.1,259.4,2.0,255.5,2.0L9.0,2.0C5.1,2.0,2.0,5.1,2.0,9.0L2.0,368.0C2.0,371.9,5.1,375.0,9.0,375.0L255.5,375.0C259.4,375.0,262.5,371.9,262.5,368.0z" fill="#000000"/><path stroke="#000000" stroke-width="4" d="M260.5,366.0L260.5,7.0C260.5,3.1,257.4,.0,253.5,.0L7.0,.0C3.1,.0,.0,3.1,.0,7.0L.0,366.0C.0,369.9,3.1,373.0,7.0,373.0L253.5,373.0C257.4,373.0,260.5,369.9,260.5,366.0z" fill="#ffffff" fill-rule="nonzero"/></g><text xml:space="preserve" style="fill:#303030;font-family:Arial,PingFang SC,Mircrosoft YaHei,Arial;font-size:18.00pt;font-weight:bold"><tspan x="35.3" style="font-family:Arial,PingFang SC,Mircrosoft YaHei,Arial" y="103.0">12,224  samples </tspan><tspan x="21.3" style="font-family:Arial,PingFang SC,Mircrosoft YaHei,Arial" y="132.0"> raw data > 17.8 TB</tspan><tspan x="43.5" style="font-family:Arial,PingFang SC,Mircrosoft YaHei,Arial" y="161.0">13 categories   </tspan><tspan x="56.5" style="font-family:Arial,PingFang SC,Mircrosoft YaHei,Arial" y="190.0">5 continents </tspan><tspan x="35.0" style="font-family:Arial,PingFang SC,Mircrosoft YaHei,Arial" y="219.0">88 countries and </tspan><tspan x="87.0" style="font-family:Arial,PingFang SC,Mircrosoft YaHei,Arial" y="248.0">regions</tspan><tspan x="72.8" style="font-family:Arial,PingFang SC,Mircrosoft YaHei,Arial" y="277.0"> 283 cities</tspan></text></g><g id="shape69" transform="translate(1097.479500,1030.290000)"><path stroke="#000000" stroke-opacity="0.08" fill-opacity="0.08" d="M22.0,697.0L243.5,697.0L263.5,2.0L2.0,2.0L22.0,697.0z" fill="#000000"/><path stroke="#b1d2df" stroke-width="1" d="M20.0,695.0L241.5,695.0L261.5,.0L.0,.0L20.0,695.0z" fill="#b1d2df" fill-rule="nonzero"/></g><g id="group70" transform="translate(1103.000000,1040.776350)"><g id="shape71"><path stroke="#000000" stroke-opacity="0.08" fill-opacity="0.08" d="M253.0,88.5L253.0,9.0C253.0,5.1,249.9,2.0,246.0,2.0L9.0,2.0C5.1,2.0,2.0,5.1,2.0,9.0L2.0,88.5C2.0,92.4,5.1,95.5,9.0,95.5L246.0,95.5C249.9,95.5,253.0,92.4,253.0,88.5z" fill="#000000"/><path stroke="#000000" stroke-width="4" d="M251.0,86.5L251.0,7.0C251.0,3.1,247.9,.0,244.0,.0L7.0,.0C3.1,.0,.0,3.1,.0,7.0L.0,86.5C.0,90.4,3.1,93.5,7.0,93.5L244.0,93.5C247.9,93.5,251.0,90.4,251.0,86.5z" fill="#ffffff" fill-rule="nonzero"/></g><text xml:space="preserve" style="fill:#303030;font-family:Arial,PingFang SC,Mircrosoft YaHei,Arial;font-size:18.00pt;font-weight:bold"><tspan x="11.3" style="font-family:Arial,PingFang SC,Mircrosoft YaHei,Arial" y="38.3">>11 million potential </tspan><tspan x="55.0" style="font-family:Arial,PingFang SC,Mircrosoft YaHei,Arial" y="67.3">viral contigs</tspan></text></g><g id="group72" transform="translate(1103.500000,1158.284350)"><g id="shape73"><path stroke="#000000" stroke-opacity="0.08" fill-opacity="0.08" d="M253.0,88.5L253.0,9.0C253.0,5.1,249.9,2.0,246.0,2.0L9.0,2.0C5.1,2.0,2.0,5.1,2.0,9.0L2.0,88.5C2.0,92.4,5.1,95.5,9.0,95.5L246.0,95.5C249.9,95.5,253.0,92.4,253.0,88.5z" fill="#000000"/><path stroke="#000000" stroke-width="4" d="M251.0,86.5L251.0,7.0C251.0,3.1,247.9,.0,244.0,.0L7.0,.0C3.1,.0,.0,3.1,.0,7.0L.0,86.5C.0,90.4,3.1,93.5,7.0,93.5L244.0,93.5C247.9,93.5,251.0,90.4,251.0,86.5z" fill="#ffffff" fill-rule="nonzero"/></g><text xml:space="preserve" style="fill:#303030;font-family:Arial,PingFang SC,Mircrosoft YaHei,Arial;font-size:18.00pt;font-weight:bold"><tspan x="17.3" style="font-family:Arial,PingFang SC,Mircrosoft YaHei,Arial" y="38.3">>2 million potential </tspan><tspan x="55.0" style="font-family:Arial,PingFang SC,Mircrosoft YaHei,Arial" y="67.3">viral contigs</tspan></text></g><g id="shape74" transform="translate(1115.714500,1275.800000)"><path stroke="#000000" stroke-opacity="0.08" fill-opacity="0.08" d="M22.0,316.0L206.1,316.0L226.1,2.0L2.0,2.0L22.0,316.0z" fill="#000000"/><path stroke="#6d6d6d" stroke-width="1" d="M20.0,314.0L204.1,314.0L224.1,.0L.0,.0L20.0,314.0z" fill="#ffffff" fill-rule="nonzero"/><text xml:space="preserve" style="fill:#303030;font-family:Arial,PingFang SC,Mircrosoft YaHei,Arial;font-size:15.00pt;font-weight:bold"><tspan x="49.3" style="font-family:Arial,PingFang SC,Mircrosoft YaHei,Arial" y="124.0">Complete(5k)</tspan><tspan x="32.5" style="font-family:Arial,PingFang SC,Mircrosoft YaHei,Arial" y="147.5">High-quality(19k)</tspan><tspan x="17.0" style="font-family:Arial,PingFang SC,Mircrosoft YaHei,Arial" y="171.0">Medium-quality(31k)</tspan><tspan x="16.0" style="font-family:Arial,PingFang SC,Mircrosoft YaHei,Arial" y="194.5">Not-determined(10k)</tspan></text></g><g id="group75" transform="translate(1116.857000,1631.774350)"><g id="shape76"><path stroke="#000000" stroke-opacity="0.08" fill-opacity="0.08" d="M226.3,88.5L226.3,9.0C226.3,5.1,223.2,2.0,219.3,2.0L9.0,2.0C5.1,2.0,2.0,5.1,2.0,9.0L2.0,88.5C2.0,92.4,5.1,95.5,9.0,95.5L219.3,95.5C223.2,95.5,226.3,92.4,226.3,88.5z" fill="#000000"/><path stroke="#000000" stroke-width="4" d="M224.3,86.5L224.3,7.0C224.3,3.1,221.2,.0,217.3,.0L7.0,.0C3.1,.0,.0,3.1,.0,7.0L.0,86.5C.0,90.4,3.1,93.5,7.0,93.5L217.3,93.5C221.2,93.5,224.3,90.4,224.3,86.5z" fill="#ffffff" fill-rule="nonzero"/></g><text xml:space="preserve" style="fill:#303030;font-family:Arial,PingFang SC,Mircrosoft YaHei,Arial;font-size:18.00pt;font-weight:bold"><tspan x="36.1" style="font-family:Arial,PingFang SC,Mircrosoft YaHei,Arial" y="53.3">23800 vOTUs</tspan></text></g></g></svg>